/* XPM */
static char *_ab70049e6c64b428420c3503069663bYITdW76YCWF1PX89[] = {
/* columns rows colors chars-per-pixel */
"384 48 12 1 ",
"  c None",
". c #AC3232",
"X c #C46423",
"o c #DF7126",
"O c #CE5050",
"+ c #6ABE30",
"@ c #FBF236",
"# c #99E550",
"$ c #D1CC60",
"% c #951799",
"& c #AF1AB2",
"* c #5FCDE4",
/* pixels */
"                                                                                                                                                                                                                                                                                                                                                                                                ",
"                                                                                                                                                                                                                                                                                                                                                                                                ",
"                                                                                                                                                                                                                                                                                                                                                                                                ",
"                                                                                                                                                                                                                                                                                                                                                                                                ",
"                                                                                                                                                                                                                                                                                                                                                                                                ",
"                                                                                                                                                                                                                                                                                                                                                                                                ",
"                                                                                                                                                                                                                                                                                                                                                                                                ",
"                                                                                                                                                                                                                                                                                                                                                                                                ",
"                                                                                                                                                                                                                                                                                                                                                                                                ",
"                                                                          ****                                            ****                                                                                                                                           ****                                            ****                                                                   ",
"                                                                         ******                                          ******                                                                                                                                         ******                                          ******                                                                  ",
"                          ****                                          ********                                        ********                                                                                          ****                                         ********                                        ********                                                                 ",
"                         ******                                         ********                                        ********                                          ****                                           ******                                        ********                                        ********                                           ****                  ",
"                        ********                                        ********                                        ********                                         ******                                         ********                                       ********                                        ********                                          ******                 ",
"                        ********                                        ********                                        ********                                        ********                                        ********                                       ********                                        ********                                         ********                ",
"                        ********                                         ******                                          ******                                         ********                                        ********                                        ******                                          ******                                          ********                ",
"                        ********                                ##+       ****                                            ****                                          ********                                        ********                                         ****                                            ****                                           ********                ",
"                         ******                                ###+++                                                                                                   ********                                         ******                                  &%           ###                                                                                       ********                ",
"                          ****                                ### +++++oooo       &&&                                +ooooo                                              ******                                           ****                                  &%%%%oXXooo   ###                                    oXXooo                                              ******                 ",
"                    +ooooo                                   ###   ++++ooooo      &&&                              +++oooooo                                         ooooo****                                        oooooo                                   &&&%%%oX+++oo  ###                                  %%oX++ooo                                         ooooo****                  ",
"                  ++++ooooo                                  ###    ++oooooo%     &&&                            +++++oooooo%                                        ++ooooo                                         %oXXoooo                                &&&&  %ooX++++o  ##                                  %%ooX++ooo                                         ++ooooo                    ",
"                #++++Xooooo                                  ###    XXoooooo%%%  &&&                            +++++Xoooooo%%                                     +++++oooo                                       %%oX++oooo                                &&&&   ooX+++++ ###                                 &%%ooX+++oo                                        +++ooooo                    ",
"               ##+++Xoooooo%                                        XXXooooo%%%%%&&                            ##++ XXoooooo%%  &&                                +++++Xoooo                                     %%%%o+++oooo                                &&&    oooX+++++##                                  && ooX+++oo                                       ++++ooooo                    ",
"               ##+ XXoooooo%%&                                      XXXXXXX    %%&                            ###    XXoooo %%&&&&                              +++++XXXXooo                                    %%%  X+++oooo                                        oXXXX+++#                                  &&   ooX+++   ###                                  +++Xooooo                    ",
"              ##    XXoooo %%&&&&                                   XXXXXX                                   ###     XXXXX   %&&&&                              ##+ &XXXXXX                                    &&&    X+++oo                                         XXXXX                                     &&&   XXX++++#####                                 +++XXXooo                     ",
"             ###    XXXXXX   &&&&                                   XXXXXX                                  ####    XXXXXX                                      ### XXXXXX                                     &&&   XX+++X                                         XXXXXX                                     &&&   XXXX++######                                 ++#XXXXX&                     ",
"             ###   XXXXXX     &&&                                  XXXXXX                                   ####   XXXXXXXX                                      ###XXXXX&                                     &&&  XXXX++OO###OO                                  XXXXXXXX                                    &&&  XXXXXXX                                       ####XXX&&&                    ",
"             ###   XXX$$$$$$$$$                                   XXX$$$$$$$$$                                     XXXXX$$$                                      #####XXX&&                                        XXXXX+######OO                                 XXXXXXXOOO                                       XXXXXXXX                                        ######&&&                    ",
"              ##   XX$$$$$$$$$$@                                  OO$$$$$$$$$$$@                                   OOXX$$$$$                                      ####$$$&&O                                      XXXXXXX######O.                                 $$XXXXOOOOO                                     $XXXXXXXOO                                       X##### &&                    ",
"                  OXX$$$$$$$$@@@                                 OOOO$$$$$$$$$$@@                                 OOOOX$$$$$$                                      ###$$$OOOO                                     $$$$XXOOOOOO...                                $$$$$XXOOOOOOO                                   $$XXXXXXOOO                                     XXXX###                       ",
"                 OOOXX$$$$$$$@@@                               OOOOOOO$$$$$$$$$@@                          ..    OOOOOO $$$$$                                      $$$$$.OOOO                                     $$$$$       ...                               $$$$$$$XOOOOOOO.                                  $$$$XXXOOOOO                                    XXX$$$$$                      ",
"                OOOOO        @@@                           ....OOOOOOOO       $@@@                        .....OOOOOOO   $$$$$                                     $$$$$...OOO                                   $$$$         ...                             $$$$$$$     OOOOO..                          @@    $$$$$$X OOOOOO                                    X$$$$$$                      ",
"               .OOOO          @@@                         .....OOOOO           @@@                       ......OOOOOO     $$$$                                    .$$$$....OOO                                  $$$$           ...                       @@@@@@$$$$          OO..                         @@@@@ $$$$$$    OOOOO                                      $$$$$$                     ",
"              ...OO           @@@                         ...                   @@@@                           OOO         $@@                                    .$$$......OO                                 @@@$            ...                       @@@@@@$$$             ...                       @@@@@@@$$$$$       ...                                       .$$$$$                    ",
"             ....O             @@@                        ..                    @@@@                                        @@                                    $@@                                         @@@@              ...                      @@@@                   ....                         @@@$$$          ..                                    @@@$$$$$$$                   ",
"            ....                                                                @@@                                         @@@                                    @@                                        @@@@                                        @                      ....                          @@$            ...                                  @@@@@@$$$$$                   ",
"           ....                                                                                                             @@@                                   @@@                                       @@@@                                                                ...                                          ...                                  @@@...                        ",
"          ....                                                                                                               @@                                   @@@                                      @@@@                                                                                                               ..                                  @  ...                        ",
"          ...                                                                                                                @@                                  @@@                                       @@@                                                                                                                ..                                    ...                         ",
"           ...                                                                                                               @@@                                 @@@@                                       @@@                                                                                                               ...                                   ....                        ",
"                                                                                                                                                                                                                                                                                                                                                                                                ",
"                                                                                                                                                                                                                                                                                                                                                                                                ",
"                                                                                                                                                                                                                                                                                                                                                                                                ",
"                                                                                                                                                                                                                                                                                                                                                                                                ",
"                                                                                                                                                                                                                                                                                                                                                                                                ",
"                                                                                                                                                                                                                                                                                                                                                                                                ",
"                                                                                                                                                                                                                                                                                                                                                                                                ",
"                                                                                                                                                                                                                                                                                                                                                                                                "
};
